<?xml version="1.0" standalone="no"?>
<!DOCTYPE svg PUBLIC "-//W3C//DTD SVG 20010904//EN"
 "http://www.w3.org/TR/2001/REC-SVG-20010904/DTD/svg10.dtd">
<svg version="1.0" xmlns="http://www.w3.org/2000/svg"
 width="3000.000000pt" height="3000.000000pt" viewBox="0 0 3000.000000 3000.000000"
 preserveAspectRatio="xMidYMid meet">
<metadata>
Created by potrace 1.14, written by Peter Selinger 2001-2017
</metadata>
<g transform="translate(0.000000,3000.000000) scale(0.100000,-0.100000)"
fill="#000000" stroke="none">
<path d="M14999 23713 c-1 -3459 -3 -6279 -6 -6268 -75 339 -190 731 -268 920
-23 55 -45 112 -48 127 -4 15 -30 75 -57 133 -28 58 -50 111 -50 117 0 6 -25
55 -55 111 -30 55 -55 105 -55 110 0 6 -25 55 -55 109 -30 54 -55 102 -55 106
0 4 -25 45 -55 92 -30 47 -55 89 -55 93 0 4 -25 46 -55 92 -30 45 -55 86 -55
90 0 4 -21 37 -48 74 -26 36 -67 96 -91 134 -24 37 -47 67 -51 67 -4 0 -15 15
-24 34 -9 19 -37 59 -62 88 -25 29 -51 63 -57 75 -10 18 -80 105 -208 257
-170 203 -596 628 -650 648 -10 4 -19 11 -19 17 0 5 -46 46 -102 91 -57 46
-108 89 -114 97 -6 7 -15 13 -19 13 -4 0 -37 25 -72 55 -36 30 -68 55 -73 55
-5 0 -32 21 -62 46 -29 25 -64 51 -78 57 -14 7 -27 14 -30 17 -13 15 -131 100
-139 100 -4 0 -39 23 -77 51 -38 28 -76 54 -84 57 -24 9 -148 91 -155 102 -3
6 -13 10 -21 10 -8 0 -45 20 -82 43 -37 24 -96 58 -132 76 -36 18 -72 39 -80
46 -8 7 -62 36 -120 64 -58 28 -112 55 -120 60 -28 18 -313 151 -324 151 -6 0
-64 25 -129 55 -66 30 -126 55 -136 55 -9 0 -52 15 -96 33 -87 36 -139 54
-345 116 -162 49 -222 63 -405 93 -121 20 -174 23 -390 22 -183 0 -282 -5
-370 -18 -66 -10 -152 -21 -191 -26 -84 -10 -201 -39 -323 -80 -49 -17 -96
-30 -105 -30 -9 0 -24 -4 -34 -9 -38 -21 -219 -101 -227 -101 -8 0 -131 -71
-246 -142 -26 -16 -59 -40 -73 -53 -15 -14 -32 -25 -39 -25 -7 0 -39 -25 -72
-55 -33 -30 -63 -55 -67 -55 -9 0 -258 -249 -258 -258 0 -4 -25 -34 -55 -67
-30 -33 -55 -65 -55 -72 0 -6 -12 -25 -28 -42 -15 -17 -41 -54 -58 -83 -17
-29 -49 -84 -72 -123 -46 -79 -172 -366 -172 -393 0 -9 -12 -51 -26 -92 -30
-88 -72 -260 -79 -322 -36 -310 -45 -601 -25 -803 6 -55 14 -149 20 -210 9
-111 54 -350 90 -483 11 -40 20 -81 20 -92 0 -11 23 -82 51 -157 28 -76 53
-149 56 -163 2 -14 11 -38 18 -55 53 -120 95 -224 95 -234 0 -29 161 -373 202
-433 10 -14 18 -32 18 -38 0 -7 25 -50 55 -96 30 -46 55 -87 55 -91 0 -5 19
-33 42 -63 23 -30 51 -71 62 -91 30 -52 196 -269 206 -269 5 0 11 -8 15 -19 3
-10 24 -38 46 -62 23 -24 55 -62 73 -84 17 -22 49 -58 70 -80 192 -200 297
-305 303 -305 5 0 31 -23 60 -52 28 -29 80 -77 115 -106 35 -29 86 -72 114
-96 28 -23 68 -55 90 -71 21 -16 62 -47 89 -70 28 -22 61 -46 75 -53 14 -7 45
-31 70 -52 25 -22 53 -43 63 -46 10 -3 49 -28 85 -56 37 -28 76 -54 87 -58 11
-4 51 -31 89 -59 38 -28 75 -51 82 -51 7 0 19 -6 26 -12 24 -23 139 -98 150
-98 5 0 34 -16 64 -36 79 -52 548 -294 571 -294 3 0 55 -23 116 -51 60 -28
127 -56 150 -64 23 -7 89 -33 147 -58 178 -76 363 -149 400 -157 41 -10 236
-82 245 -92 4 -3 -17 -11 -46 -17 -29 -6 -108 -34 -177 -61 -68 -28 -130 -50
-137 -50 -11 0 -43 -13 -170 -70 -23 -10 -68 -27 -101 -38 -33 -11 -85 -31
-115 -44 -30 -14 -75 -35 -101 -47 -26 -11 -52 -21 -58 -21 -6 0 -62 -25 -125
-55 -62 -30 -117 -55 -122 -55 -5 0 -56 -25 -112 -55 -57 -30 -106 -55 -110
-55 -11 0 -125 -62 -131 -71 -3 -5 -30 -19 -60 -33 -30 -13 -86 -45 -124 -70
-38 -25 -73 -46 -78 -46 -4 0 -41 -22 -81 -49 -161 -108 -221 -147 -249 -163
-32 -17 -127 -85 -248 -175 -39 -29 -74 -53 -78 -53 -4 0 -34 -25 -67 -55 -33
-30 -64 -55 -68 -55 -5 0 -37 -25 -70 -55 -34 -30 -64 -55 -67 -55 -22 0 -406
-375 -542 -530 -61 -69 -116 -129 -124 -133 -8 -4 -14 -14 -14 -21 0 -7 -25
-40 -55 -73 -30 -34 -55 -65 -55 -70 0 -5 -14 -25 -31 -44 -17 -19 -58 -74
-91 -124 -33 -49 -69 -99 -79 -111 -11 -11 -19 -25 -19 -31 0 -5 -14 -30 -32
-54 -77 -106 -298 -547 -298 -594 0 -8 -9 -34 -19 -58 -60 -130 -83 -186 -90
-217 -5 -19 -30 -89 -56 -155 -25 -66 -50 -140 -54 -165 -5 -25 -24 -108 -44
-185 -76 -300 -102 -539 -102 -925 0 -385 29 -608 111 -857 19 -56 34 -109 34
-117 0 -26 149 -345 176 -376 7 -9 23 -36 34 -60 12 -25 39 -70 61 -100 23
-30 49 -68 60 -85 10 -16 37 -50 59 -75 22 -25 77 -87 122 -137 46 -51 87 -93
92 -93 5 0 34 -25 63 -55 30 -30 59 -55 66 -55 7 0 24 -12 38 -27 32 -34 266
-193 283 -193 8 0 24 -8 37 -18 28 -22 151 -85 194 -100 17 -6 76 -29 132 -51
57 -23 122 -46 145 -51 24 -4 104 -24 178 -43 74 -19 185 -41 245 -50 152 -22
496 -31 695 -18 144 9 187 16 340 56 96 25 195 50 220 55 25 4 101 29 170 55
69 26 141 50 160 54 19 5 88 31 154 60 65 28 123 51 129 51 6 0 61 25 122 55
62 30 118 55 125 55 7 0 57 25 113 55 55 30 105 55 112 55 6 0 38 16 71 36 32
20 95 54 139 77 44 22 82 43 85 47 3 4 41 26 85 50 44 24 104 60 134 81 30 22
59 39 65 39 6 0 38 20 71 45 33 24 78 54 101 66 23 11 65 41 95 65 30 24 59
44 65 44 5 0 19 8 30 18 17 16 189 144 267 200 18 12 48 38 67 56 19 18 49 41
65 52 17 10 52 40 79 66 28 27 54 48 59 48 5 0 21 12 36 28 15 15 92 87 172
160 80 73 208 201 285 284 76 83 151 164 167 179 15 15 27 31 27 36 0 4 20 28
45 53 25 25 52 58 61 73 8 16 35 49 59 75 25 26 50 59 56 74 6 16 15 28 19 28
4 0 27 28 50 62 24 35 68 95 97 134 29 40 53 76 53 81 0 4 13 24 28 43 16 19
50 71 77 115 26 44 63 102 82 129 18 26 33 54 33 61 0 8 6 20 13 27 7 7 28 39
46 70 18 32 36 60 42 63 5 4 9 14 9 24 0 10 11 34 23 53 13 19 37 61 54 94 16
32 55 110 86 171 31 62 57 118 57 124 0 7 22 59 50 116 27 56 52 115 56 131 3
15 12 41 19 57 30 66 95 240 95 252 0 7 25 86 55 177 30 90 55 173 55 184 0
11 18 92 39 179 22 87 44 178 49 203 6 29 10 -2210 11 -6267 l1 -6313 7500 0
7500 0 0 15000 0 15000 -7500 0 -7500 0 -1 -6287z m5691 -1213 c278 -24 485
-62 659 -121 47 -16 91 -29 99 -29 16 0 23 -3 218 -93 77 -35 160 -78 184 -96
24 -17 48 -31 54 -31 10 0 132 -83 146 -99 3 -3 17 -13 32 -21 15 -8 46 -32
70 -53 147 -128 224 -201 240 -226 11 -16 30 -37 43 -45 14 -9 37 -36 51 -59
15 -23 33 -46 40 -50 7 -4 44 -54 81 -110 37 -56 70 -104 74 -107 4 -3 19 -30
33 -60 14 -30 44 -86 66 -125 21 -38 39 -77 40 -85 0 -8 7 -28 16 -45 26 -50
84 -205 94 -249 4 -22 22 -94 38 -158 63 -243 67 -285 67 -718 -1 -432 -4
-468 -75 -800 -15 -74 -31 -153 -35 -175 -10 -59 -127 -406 -174 -515 -23 -52
-41 -100 -41 -106 0 -11 -17 -53 -67 -164 -14 -30 -36 -84 -49 -119 -13 -35
-33 -78 -43 -95 -11 -17 -36 -65 -57 -106 -20 -41 -55 -100 -76 -131 -21 -31
-38 -63 -38 -72 0 -8 -4 -17 -8 -19 -5 -1 -23 -25 -42 -53 -19 -27 -40 -56
-47 -63 -7 -7 -13 -19 -13 -25 0 -7 -21 -37 -46 -67 -25 -30 -52 -68 -61 -85
-9 -16 -21 -34 -28 -40 -11 -9 -41 -46 -212 -260 -23 -28 -53 -60 -68 -69 -14
-9 -25 -22 -25 -28 0 -13 -295 -307 -411 -409 -59 -53 -195 -166 -254 -211 -5
-4 -34 -27 -64 -50 -29 -24 -67 -52 -85 -63 -17 -11 -58 -41 -91 -67 -33 -27
-64 -48 -68 -48 -8 0 -110 -74 -135 -97 -7 -7 -19 -13 -26 -13 -7 0 -44 -23
-82 -51 -38 -28 -76 -54 -84 -57 -19 -7 -123 -74 -130 -84 -3 -4 -26 -16 -50
-28 -43 -20 -144 -80 -165 -98 -6 -5 -22 -12 -36 -15 -14 -4 -42 -18 -62 -31
-40 -27 -361 -186 -376 -186 -5 0 -61 -25 -124 -55 -63 -30 -122 -55 -132 -55
-9 0 -29 -7 -43 -15 -42 -23 -204 -91 -236 -99 -17 -4 -81 -30 -144 -57 -64
-27 -125 -49 -137 -49 -11 0 -25 -4 -30 -9 -6 -4 -59 -26 -120 -47 l-110 -39
45 -8 c42 -8 218 -72 284 -103 16 -8 37 -14 46 -14 15 0 64 -20 195 -80 23
-10 60 -23 83 -29 41 -11 166 -64 225 -96 16 -8 36 -15 45 -15 9 0 66 -25 126
-55 60 -30 115 -55 123 -55 7 0 57 -25 112 -55 55 -30 105 -55 112 -55 6 0 48
-22 93 -49 45 -27 98 -56 119 -65 21 -8 44 -21 51 -28 15 -14 87 -59 156 -96
25 -13 54 -32 65 -42 11 -10 36 -26 55 -37 19 -10 64 -38 99 -63 35 -25 80
-54 100 -65 20 -12 60 -40 90 -63 29 -23 59 -42 66 -42 8 0 18 -6 22 -13 4 -7
56 -48 116 -91 59 -43 107 -81 107 -85 0 -4 15 -15 33 -25 32 -19 83 -61 200
-168 35 -32 67 -58 71 -58 4 0 30 -25 58 -55 27 -30 53 -55 58 -55 8 0 113
-106 216 -219 32 -36 76 -81 97 -101 20 -20 37 -41 37 -46 0 -6 20 -30 45 -55
25 -24 52 -56 60 -70 8 -15 32 -46 55 -70 22 -24 46 -56 53 -71 6 -15 15 -28
18 -28 3 0 21 -21 39 -47 18 -27 38 -52 44 -58 6 -5 19 -27 30 -47 10 -20 26
-45 35 -55 29 -32 61 -81 61 -94 0 -7 8 -22 18 -33 21 -24 92 -141 92 -151 0
-3 25 -51 55 -106 30 -55 55 -104 55 -111 0 -6 9 -30 19 -52 42 -87 74 -163
93 -219 10 -33 32 -88 48 -123 16 -35 32 -75 36 -89 3 -14 10 -28 15 -31 5 -3
9 -16 9 -30 0 -14 6 -37 14 -52 24 -47 88 -245 96 -297 4 -27 19 -99 33 -160
80 -339 109 -731 83 -1115 -16 -228 -34 -339 -82 -505 -15 -49 -30 -108 -35
-130 -7 -38 -42 -127 -88 -227 -11 -26 -21 -52 -21 -58 0 -11 -77 -156 -93
-175 -4 -5 -18 -29 -30 -52 -33 -61 -130 -202 -171 -247 -20 -21 -36 -42 -36
-47 0 -11 -289 -299 -300 -299 -5 0 -15 -6 -22 -13 -7 -7 -33 -28 -58 -46 -25
-19 -49 -39 -55 -45 -5 -6 -27 -19 -47 -30 -20 -10 -45 -26 -55 -35 -28 -26
-89 -61 -106 -61 -8 0 -17 -4 -19 -8 -5 -14 -175 -102 -195 -102 -10 0 -23 -4
-29 -9 -14 -14 -207 -90 -246 -97 -18 -4 -80 -19 -138 -35 -265 -71 -532 -96
-895 -84 -207 7 -294 20 -478 70 -51 14 -112 30 -137 36 -116 28 -341 104
-503 171 -65 27 -138 55 -163 64 -25 8 -84 35 -133 60 -48 24 -94 44 -100 44
-7 0 -57 25 -112 55 -55 30 -105 55 -112 55 -7 0 -54 25 -104 55 -51 30 -97
55 -103 55 -6 0 -46 23 -91 51 -44 27 -90 54 -102 58 -13 5 -53 30 -91 56 -38
25 -76 50 -85 53 -20 9 -134 83 -141 92 -3 4 -21 14 -40 24 -19 9 -53 32 -75
51 -22 19 -51 40 -65 47 -31 16 -144 100 -148 110 -2 5 -8 8 -14 8 -10 0 -72
46 -117 88 -13 12 -29 22 -35 22 -7 0 -27 16 -46 35 -19 19 -52 47 -74 62 -23
16 -45 33 -51 39 -5 7 -62 56 -125 109 -215 182 -438 405 -635 635 -49 58 -96
109 -102 113 -7 4 -13 13 -13 20 0 7 -25 39 -55 72 -30 33 -55 65 -55 70 0 6
-20 32 -44 59 -24 27 -50 60 -58 75 -7 14 -15 28 -18 31 -17 17 -100 131 -100
138 0 4 -25 41 -55 82 -30 41 -55 78 -55 82 0 4 -25 44 -55 89 -30 45 -55 85
-55 90 0 10 -30 61 -41 69 -4 3 -30 50 -59 105 -29 55 -63 116 -75 135 -28 46
-138 272 -163 335 -11 28 -31 73 -45 100 -29 59 -48 103 -69 165 -9 25 -34 90
-56 145 -44 110 -148 433 -156 480 -2 17 -27 120 -55 230 l-51 200 3 2460 2
2460 31 110 c17 61 41 151 53 200 13 50 43 151 68 225 25 74 50 153 56 175 16
61 97 269 111 282 3 3 6 15 6 25 0 11 25 71 55 133 30 63 55 119 55 125 0 5
25 54 55 109 30 55 55 105 55 111 0 7 25 54 55 105 30 52 55 98 55 102 0 5 17
36 39 69 21 32 54 87 73 122 19 35 42 72 52 83 9 11 29 42 44 69 15 26 47 76
72 111 25 35 51 75 58 89 7 14 28 43 47 65 19 22 42 54 50 72 9 18 20 35 26
38 5 4 41 48 78 99 38 50 80 103 93 116 13 14 32 37 41 53 10 15 36 44 57 65
22 20 40 42 40 48 0 6 17 27 38 47 20 19 66 68 102 108 124 137 456 459 475
459 4 0 33 25 63 55 31 30 61 55 68 55 7 0 17 7 21 15 5 7 55 51 113 96 58 44
107 84 110 89 3 4 19 14 35 23 17 8 48 32 70 52 22 20 54 43 72 51 17 7 34 18
38 23 6 11 283 201 292 201 9 0 147 94 151 103 2 4 11 7 19 7 8 0 36 14 62 32
45 31 199 117 296 166 67 34 68 35 162 87 44 25 87 45 94 45 7 0 61 25 120 55
59 30 112 55 118 55 6 0 55 20 108 43 126 56 131 58 178 73 22 6 76 26 120 44
44 18 111 41 149 51 37 10 116 34 175 53 302 96 669 135 1001 106z m-11335
-1540 c244 -24 416 -55 585 -107 63 -19 133 -39 155 -43 22 -5 96 -31 165 -59
69 -28 128 -51 133 -51 10 0 305 -146 321 -159 6 -5 58 -34 115 -65 57 -31
110 -64 119 -73 9 -9 31 -22 49 -30 19 -7 65 -36 103 -63 39 -28 73 -50 77
-50 4 0 38 -24 77 -52 39 -29 78 -57 87 -63 47 -29 259 -197 259 -205 0 -6 6
-10 14 -10 7 0 35 -21 62 -46 27 -25 58 -52 69 -60 83 -60 501 -479 514 -517
2 -7 26 -34 53 -61 26 -28 48 -53 48 -57 0 -4 6 -14 13 -21 7 -7 30 -35 52
-63 22 -27 43 -51 48 -53 4 -2 7 -8 7 -14 0 -6 20 -34 44 -62 24 -29 54 -70
66 -91 12 -22 27 -45 34 -50 7 -6 43 -57 80 -114 37 -57 74 -110 81 -118 8 -7
17 -23 21 -35 4 -12 24 -47 44 -78 21 -30 55 -86 75 -125 21 -38 43 -77 50
-85 33 -41 244 -477 282 -583 14 -40 29 -76 33 -82 29 -37 158 -430 219 -665
65 -251 94 -452 95 -646 0 -128 -6 -138 -84 -131 -192 18 -255 30 -585 105
-49 12 -126 28 -170 38 -44 9 -134 32 -199 51 -66 19 -144 39 -173 44 -29 6
-121 32 -205 59 -84 28 -161 50 -170 50 -10 0 -80 23 -155 51 -76 29 -156 56
-178 61 -21 5 -53 15 -70 23 -89 40 -202 85 -213 85 -6 0 -51 18 -99 41 -49
23 -122 53 -163 69 -41 15 -114 46 -162 69 -48 22 -92 41 -98 41 -5 0 -54 25
-109 55 -55 30 -105 55 -111 55 -14 0 -168 88 -176 101 -3 5 -13 9 -23 9 -10
0 -36 13 -57 28 -21 15 -73 47 -114 71 -41 24 -98 61 -126 82 -28 22 -56 39
-62 39 -7 0 -20 8 -30 18 -11 11 -63 51 -118 89 -54 39 -108 80 -118 92 -11
11 -24 21 -30 21 -6 0 -37 24 -69 53 -31 28 -78 70 -103 92 -121 106 -412 410
-450 470 -10 17 -30 42 -44 56 -14 14 -38 45 -55 70 -16 24 -48 69 -70 99 -23
30 -52 77 -65 103 -13 26 -26 47 -30 47 -4 0 -28 42 -55 93 -26 50 -57 108
-69 127 -22 37 -102 216 -141 315 -44 112 -126 380 -135 440 -5 33 -18 103
-29 155 -51 248 -53 488 -6 665 15 55 30 114 35 132 12 49 114 195 172 248 64
57 194 135 226 135 13 0 32 5 43 11 64 34 223 45 394 29z m4356 -7277 c20 -24
18 -218 -5 -383 -20 -154 -66 -367 -102 -473 -13 -40 -24 -82 -24 -94 0 -13
-23 -85 -51 -160 -28 -76 -54 -154 -58 -173 -5 -19 -19 -57 -31 -85 -12 -27
-31 -70 -42 -94 -11 -25 -27 -63 -35 -85 -28 -80 -250 -531 -278 -566 -7 -8
-29 -46 -50 -85 -21 -38 -50 -87 -64 -109 -14 -21 -37 -58 -51 -82 -36 -64
-158 -243 -192 -282 -15 -18 -28 -38 -28 -45 0 -7 -21 -34 -45 -62 -25 -27
-51 -62 -58 -77 -6 -16 -15 -28 -18 -28 -4 0 -42 -45 -85 -101 -43 -55 -85
-106 -94 -112 -9 -7 -21 -21 -28 -32 -35 -65 -484 -508 -533 -527 -11 -4 -19
-11 -19 -16 0 -8 -69 -64 -318 -259 -37 -29 -72 -53 -78 -53 -5 0 -19 -8 -30
-17 -34 -31 -87 -69 -158 -112 -38 -24 -76 -50 -85 -58 -8 -9 -30 -22 -47 -29
-30 -13 -88 -48 -156 -95 -15 -11 -33 -19 -40 -19 -7 0 -30 -11 -51 -25 -54
-38 -373 -195 -394 -195 -7 0 -63 -20 -124 -45 -61 -25 -146 -54 -188 -65 -42
-10 -128 -32 -191 -49 -148 -40 -244 -57 -405 -73 -307 -30 -477 -7 -622 83
-34 22 -65 39 -68 39 -14 0 -124 120 -156 170 -55 84 -65 107 -93 215 -56 208
-57 400 -6 695 43 250 133 549 214 717 15 29 26 58 26 64 0 13 167 331 178
339 14 10 42 59 42 73 0 8 6 19 13 25 7 6 43 55 80 110 36 54 80 111 97 127
16 16 30 34 30 41 0 6 17 29 38 50 20 22 53 59 73 84 54 67 326 337 387 382
28 22 52 44 52 48 0 4 19 20 43 36 23 16 67 50 96 76 30 27 60 48 67 48 7 0
14 3 16 8 4 10 119 96 138 104 8 3 46 29 84 57 38 28 72 51 77 51 4 0 44 25
89 55 45 30 86 55 90 55 5 0 49 25 99 55 50 30 95 55 101 55 5 0 49 23 97 50
49 28 99 54 113 57 14 4 75 30 135 60 61 29 117 53 127 53 9 0 63 22 120 49
56 27 135 60 173 74 39 14 108 40 155 59 85 35 213 80 345 123 256 84 422 135
437 135 10 0 104 25 210 55 106 30 202 55 213 55 12 0 93 18 181 39 87 22 197
47 244 55 333 61 399 67 421 39z"/>
<path d="M20665 20964 c-22 -3 -89 -12 -150 -20 -60 -9 -141 -20 -180 -25
-119 -14 -483 -118 -610 -174 -27 -12 -79 -32 -115 -45 -36 -13 -99 -42 -141
-65 -42 -23 -87 -45 -101 -48 -13 -4 -41 -18 -62 -32 -20 -14 -72 -44 -114
-66 -42 -23 -102 -59 -133 -80 -31 -22 -60 -39 -63 -39 -8 0 -128 -80 -136
-90 -3 -4 -21 -15 -40 -24 -19 -9 -52 -31 -73 -49 -21 -17 -53 -41 -72 -52
-53 -32 -255 -188 -255 -197 0 -4 -13 -14 -30 -23 -16 -8 -44 -30 -62 -48 -18
-17 -53 -48 -78 -67 -24 -19 -60 -52 -78 -72 -19 -21 -38 -38 -42 -38 -11 0
-260 -249 -260 -260 0 -4 -19 -26 -43 -47 -24 -21 -58 -59 -76 -85 -19 -26
-39 -49 -45 -51 -6 -3 -25 -24 -41 -48 -16 -24 -37 -51 -46 -59 -20 -18 -165
-209 -194 -255 -11 -18 -33 -49 -50 -69 -16 -21 -39 -52 -50 -70 -37 -61 -100
-151 -107 -154 -5 -2 -8 -10 -8 -17 0 -8 -20 -43 -45 -79 -25 -36 -53 -81 -62
-100 -37 -69 -64 -116 -88 -152 -14 -20 -25 -44 -25 -52 0 -9 -6 -23 -14 -31
-23 -27 -206 -398 -206 -418 0 -6 -16 -46 -36 -89 -54 -116 -144 -375 -208
-596 -87 -302 -149 -702 -129 -838 7 -47 12 -56 35 -64 42 -15 263 18 563 85
99 22 203 45 230 51 28 5 121 30 208 54 86 24 165 44 175 44 9 0 93 24 187 54
93 30 186 57 205 61 19 4 93 29 164 56 71 27 136 49 143 49 8 0 69 23 136 51
67 28 136 54 152 58 17 4 71 27 120 50 50 24 116 52 148 62 31 11 99 40 151
64 52 25 99 45 106 45 6 0 56 25 111 55 55 30 105 55 112 55 11 0 38 15 155
89 18 12 38 21 43 21 6 0 47 24 92 53 45 29 93 58 107 65 14 7 53 33 85 58 33
24 64 44 70 44 5 0 41 25 78 55 38 30 72 55 77 55 5 0 22 12 37 26 15 14 60
50 98 79 107 81 214 178 350 313 177 178 195 197 195 207 0 6 14 23 30 39 34
32 165 201 194 249 10 18 38 58 62 90 24 33 44 63 44 68 0 6 8 22 19 37 49 70
91 140 91 151 0 7 25 57 55 112 30 55 55 105 55 113 0 8 14 45 31 82 54 119
57 128 77 199 11 39 39 135 62 215 23 79 48 187 55 240 7 52 19 133 25 179 16
113 8 394 -14 486 -50 210 -134 343 -278 442 -98 67 -105 71 -211 99 -91 25
-266 38 -362 28z"/>
<path d="M16289 13683 c-22 -26 -16 -252 10 -403 13 -69 26 -152 31 -185 4
-33 13 -80 19 -105 29 -114 95 -335 128 -430 81 -235 110 -316 121 -335 21
-37 62 -132 62 -144 0 -10 50 -116 132 -276 68 -135 124 -238 158 -294 22 -34
40 -67 40 -71 0 -5 25 -45 55 -89 30 -44 55 -87 55 -95 0 -8 4 -16 8 -18 5 -2
23 -25 42 -53 19 -27 40 -56 47 -63 7 -7 13 -18 13 -25 0 -6 18 -32 40 -58 22
-26 50 -64 62 -85 12 -22 28 -43 34 -49 6 -5 33 -39 59 -75 161 -223 461 -549
680 -740 41 -36 101 -89 132 -117 32 -29 63 -53 68 -53 6 0 18 -9 27 -20 10
-10 60 -51 113 -90 53 -39 104 -79 115 -90 11 -11 26 -20 33 -20 6 0 37 -20
67 -45 30 -25 68 -52 85 -60 16 -9 55 -33 85 -55 30 -22 71 -47 90 -56 19 -9
49 -26 65 -39 17 -12 71 -44 120 -70 50 -26 101 -56 115 -65 37 -26 254 -128
340 -160 233 -88 293 -110 306 -110 8 0 69 -15 137 -34 181 -51 249 -64 413
-82 272 -29 443 -21 569 28 235 90 391 291 436 558 21 127 25 333 9 440 -6 36
-14 106 -20 155 -5 50 -28 155 -50 235 -23 80 -50 177 -60 216 -20 74 -74 215
-97 249 -7 11 -13 28 -13 39 0 10 -24 67 -54 125 -30 58 -59 117 -65 131 -6
14 -29 52 -50 85 -22 33 -48 78 -59 100 -11 22 -31 53 -45 69 -14 17 -34 46
-44 65 -10 20 -23 41 -29 46 -6 6 -26 31 -44 58 -18 26 -37 47 -42 47 -4 0 -8
6 -8 13 0 33 -473 537 -504 537 -5 0 -34 25 -64 55 -31 30 -60 55 -66 55 -6 0
-22 12 -35 25 -13 14 -62 53 -110 87 -47 34 -94 70 -104 80 -10 10 -32 24 -50
32 -18 7 -43 23 -56 34 -13 12 -47 36 -75 53 -28 17 -80 51 -116 74 -36 24
-81 50 -100 59 -19 8 -66 36 -105 60 -38 25 -76 45 -83 46 -8 0 -58 25 -113
55 -55 30 -103 55 -108 55 -6 0 -61 25 -123 55 -62 30 -121 55 -131 55 -9 0
-25 4 -35 10 -45 25 -210 98 -235 104 -15 4 -57 20 -93 36 -35 17 -68 30 -72
30 -4 1 -25 9 -47 20 -22 11 -50 19 -63 20 -12 0 -30 5 -40 10 -24 14 -263
100 -278 100 -7 0 -88 24 -181 54 -92 29 -197 60 -233 69 -36 8 -130 33 -210
56 -80 23 -153 41 -163 41 -9 0 -101 20 -204 45 -102 25 -218 50 -257 56 -39
6 -121 19 -182 30 -138 24 -187 24 -205 2z"/>
</g>
</svg>
